<svg width="41" height="40" viewBox="0 0 41 40" fill="none" xmlns="http://www.w3.org/2000/svg">
<rect x="0.5" width="40" height="40" rx="8" fill="#FAFAFA"/>
<path d="M26.5006 17.9999C28.7101 17.9999 30.5013 19.7911 30.5013 22.0006C30.5013 23.0157 30.1232 23.9424 29.5003 24.6478L29.5002 29.2486C29.5002 29.8194 28.8957 30.1681 28.4101 29.9175L28.3206 29.8634L26.5003 28.5912L24.6806 29.8634C24.2127 30.1904 23.5807 29.8945 23.508 29.353L23.5011 29.2486L23.5001 24.6468C22.8777 23.9415 22.5 23.0152 22.5 22.0006C22.5 19.7911 24.2911 17.9999 26.5006 17.9999ZM27.9994 25.711C27.5365 25.8982 27.0306 26.0012 26.5006 26.0012C25.9699 26.0012 25.4633 25.8979 24.9999 25.7102L25.0003 27.8092L26.0711 27.0621C26.2968 26.9043 26.5878 26.8846 26.8298 27.0029L26.9302 27.0621L27.9993 27.8092L27.9994 25.711ZM27.75 11.0042C29.2125 11.0042 30.4084 12.1459 30.495 13.5866L30.5 13.7542L30.5014 19C30.0971 18.4618 29.5867 18.0078 29.0013 17.6691L29 13.7542C29 13.1069 28.5081 12.5746 27.8778 12.5106L27.75 12.5042H13.25C12.6028 12.5042 12.0705 12.996 12.0065 13.6263L12 13.7542V23.2542C12 23.9014 12.4919 24.4337 13.1222 24.4977L13.25 24.5042L22.1716 24.5054L22.2955 24.7078L22.4291 24.9045L22.5 24.9979L22.499 26.0042H13.25C11.7875 26.0042 10.5916 24.8624 10.505 23.4217L10.5 23.2542V13.7542C10.5 12.2916 11.6417 11.0957 13.0825 11.0092L13.25 11.0042H27.75ZM26.5006 19.4999C25.1196 19.4999 24 20.6195 24 22.0006C24 23.3817 25.1196 24.5012 26.5006 24.5012C27.8817 24.5012 29.0013 23.3817 29.0013 22.0006C29.0013 20.6195 27.8817 19.4999 26.5006 19.4999ZM19.75 20.4999C20.1642 20.4999 20.5 20.8357 20.5 21.2499C20.5 21.6296 20.2178 21.9434 19.8518 21.9931L19.75 21.9999H15.25C14.8358 21.9999 14.5 21.6642 14.5 21.2499C14.5 20.8703 14.7822 20.5565 15.1482 20.5068L15.25 20.4999H19.75ZM25.75 14.9999C26.1642 14.9999 26.5 15.3357 26.5 15.7499C26.5 16.1296 26.2178 16.4434 25.8518 16.4931L25.75 16.4999H15.25C14.8358 16.4999 14.5 16.1642 14.5 15.7499C14.5 15.3703 14.7822 15.0565 15.1482 15.0068L15.25 14.9999H25.75Z" fill="#59BF75"/>
</svg>
