<svg width="41" height="40" viewBox="0 0 41 40" fill="none" xmlns="http://www.w3.org/2000/svg">
<rect x="0.5" width="40" height="40" rx="8" fill="#FAFAFA"/>
<g clip-path="url(#clip0_718_28)">
<path d="M20.4999 8.13635C27.0516 8.13635 32.3635 13.4483 32.3635 20C32.3635 26.5517 27.0516 31.8636 20.4999 31.8636C13.9482 31.8636 8.63623 26.5517 8.63623 20C8.63623 13.4483 13.9482 8.13635 20.4999 8.13635ZM20.4999 9.78441C14.8666 9.78441 10.2843 14.3667 10.2843 20C10.2843 25.6332 14.8666 30.2156 20.4999 30.2156C26.1331 30.2156 30.7154 25.6332 30.7154 20C30.7154 14.3667 26.1331 9.78441 20.4999 9.78441ZM19.7584 13.0795C20.1336 13.0795 20.444 13.3587 20.4931 13.7204L20.4999 13.821V20H24.7016C25.1109 20 25.443 20.3322 25.443 20.7415C25.443 21.1167 25.1639 21.427 24.8021 21.4762L24.7016 21.4829H19.7584C19.3832 21.4829 19.0728 21.2038 19.0237 20.842L19.0169 20.7415V13.821C19.0169 13.4117 19.3491 13.0795 19.7584 13.0795Z" fill="#59BF75"/>
</g>
<defs>
<clipPath id="clip0_718_28">
<rect width="24" height="24" fill="white" transform="translate(8.5 8)"/>
</clipPath>
</defs>
</svg>
