<svg width="40" height="40" viewBox="0 0 40 40" fill="none" xmlns="http://www.w3.org/2000/svg">
<rect width="40" height="40" rx="8" fill="#FAFAFA"/>
<g clip-path="url(#clip0_678_156)">
<path d="M21 17.75C21 17.3358 21.3358 17 21.75 17H27.25C27.6642 17 28 17.3358 28 17.75C28 18.1642 27.6642 18.5 27.25 18.5H21.75C21.3358 18.5 21 18.1642 21 17.75ZM21.75 21C21.3358 21 21 21.3358 21 21.75C21 22.1642 21.3358 22.5 21.75 22.5H27.25C27.6642 22.5 28 22.1642 28 21.75C28 21.3358 27.6642 21 27.25 21H21.75ZM17.25 17.75C17.25 18.7165 16.4665 19.5 15.5 19.5C14.5335 19.5 13.75 18.7165 13.75 17.75C13.75 16.7835 14.5335 16 15.5 16C16.4665 16 17.25 16.7835 17.25 17.75ZM13 20.5H18C18.5523 20.5 19 20.9477 19 21.5V22C19 22 18.5 24.5 15.5 24.5C12.5 24.5 12 22 12 22V21.5C12 20.9477 12.4477 20.5 13 20.5ZM8.00391 12.75C8.00391 11.2312 9.23512 10 10.7539 10H29.2505C30.7693 10 32.0005 11.2312 32.0005 12.75V27.2501C32.0005 28.7688 30.7693 30.0001 29.2505 30.0001H10.7539C9.23513 30.0001 8.00391 28.7688 8.00391 27.2501V12.75ZM10.7539 11.5C10.0636 11.5 9.50391 12.0596 9.50391 12.75V27.2501C9.50391 27.9404 10.0636 28.5001 10.7539 28.5001H29.2505C29.9409 28.5001 30.5005 27.9404 30.5005 27.2501V12.75C30.5005 12.0596 29.9409 11.5 29.2505 11.5H10.7539Z" fill="#59BF75"/>
</g>
<defs>
<clipPath id="clip0_678_156">
<rect width="24" height="24" fill="white" transform="translate(8 8)"/>
</clipPath>
</defs>
</svg>
