<svg width="14" height="17" viewBox="0 0 14 17" fill="none" xmlns="http://www.w3.org/2000/svg">
<path d="M7.27735 0.741934C7.1094 0.629967 6.8906 0.629967 6.72265 0.741934C4.78446 2.03406 2.68833 2.84026 0.429289 3.16298C0.182965 3.19817 0 3.40913 0 3.65796V8.15796C0 12.0493 2.30699 14.8887 6.82051 16.6246C6.93605 16.6691 7.06395 16.6691 7.17949 16.6246C11.693 14.8887 14 12.0493 14 8.15796V3.65796C14 3.40913 13.817 3.19817 13.5707 3.16298C11.3117 2.84026 9.21554 2.03406 7.27735 0.741934ZM10.8536 6.51151L6.85355 10.5115C6.65829 10.7068 6.34171 10.7068 6.14645 10.5115L4.14645 8.51151C3.95118 8.31625 3.95118 7.99967 4.14645 7.80441C4.34171 7.60914 4.65829 7.60914 4.85355 7.80441L6.5 9.45085L10.1464 5.80441C10.3417 5.60914 10.6583 5.60914 10.8536 5.80441C11.0488 5.99967 11.0488 6.31625 10.8536 6.51151Z" fill="#59BF75"/>
</svg>
