<svg width="36" height="40" viewBox="0 0 36 40" fill="none" xmlns="http://www.w3.org/2000/svg">
<path d="M26.6129 15.1542C27.1122 14.6775 27.1306 13.8863 26.6539 13.3869C26.1773 12.8875 25.386 12.8691 24.8867 13.3458L14.7701 23.0026L11.1336 19.3661C10.6455 18.878 9.85403 18.878 9.36587 19.3661C8.87772 19.8543 8.87772 20.6457 9.36587 21.1339L13.8659 25.6339C14.346 26.114 15.1217 26.1231 15.6129 25.6542L26.6129 15.1542ZM18.8646 0.347515C18.3811 -0.115838 17.6184 -0.115838 17.1349 0.347515C14.3762 2.99127 10.4502 4.42541 7.09785 5.18734C5.43888 5.56438 3.95899 5.76829 2.89553 5.87765C2.36453 5.93226 1.93932 5.9631 1.64987 5.98021C1.50519 5.98876 1.39459 5.99387 1.32181 5.9968C1.28543 5.99827 1.25851 5.99919 1.24154 5.99973L1.2236 6.00027L1.2202 6.00036C0.541687 6.01653 -1.27547e-05 6.5713 2.25243e-10 7.25009V16.75C2.25243e-10 21.587 1.24269 26.4082 4.09773 30.5249C6.95924 34.6508 11.3886 37.9936 17.6269 39.9431C17.8697 40.019 18.1298 40.019 18.3726 39.9431C30.9406 36.0156 36 26.4968 36 17V7.25C36 6.57114 35.4577 6.01639 34.7791 6.00034L34.7764 6.00027L34.7585 5.99973C34.7415 5.99919 34.7146 5.99827 34.6782 5.9968C34.6054 5.99387 34.4948 5.98876 34.3501 5.98021C34.0606 5.9631 33.6354 5.93226 33.1044 5.87765C32.0409 5.76829 30.5609 5.56438 28.9019 5.18733C25.5494 4.42541 21.6233 2.99126 18.8646 0.347515ZM2.5 16.75L2.50002 8.42534C2.6969 8.40888 2.91472 8.38886 3.15128 8.36454C4.2909 8.24734 5.87344 8.02937 7.65191 7.62516C10.8704 6.89368 14.8623 5.52333 17.9998 2.92285C21.1373 5.52333 25.1293 6.89369 28.3479 7.62517C30.1264 8.02937 31.709 8.24734 32.8487 8.36454C33.0853 8.38887 33.3031 8.40889 33.5 8.42535V17C33.5 25.4102 29.1556 33.7988 17.9998 37.4378C12.4402 35.6244 8.61082 32.6454 6.15203 29.1001C3.6322 25.4668 2.50001 21.1629 2.5 16.75Z" fill="#59BF75"/>
</svg>
