<svg width="40" height="40" viewBox="0 0 40 40" fill="none" xmlns="http://www.w3.org/2000/svg">
<rect width="40" height="40" rx="8" fill="#FAFAFA"/>
<path d="M11 13.75C11 13.3358 11.3358 13 11.75 13C14.4134 13 17.008 12.0565 19.55 10.15C19.8167 9.95 20.1833 9.95 20.45 10.15C22.992 12.0565 25.5866 13 28.25 13C28.6642 13 29 13.3358 29 13.75V19C29 19.1813 28.9961 19.3609 28.9883 19.5387C28.5804 19.1263 28.0707 18.8148 27.5 18.6449V14.4779C24.9227 14.3258 22.4192 13.3883 20 11.6778C17.5808 13.3883 15.0773 14.3258 12.5 14.4779V19C12.5 23.2556 14.9534 26.3789 20 28.4419C20.3455 28.3007 20.6788 28.1545 21 28.0033V29.5C21 29.5492 21.0014 29.598 21.0042 29.6465C20.7663 29.7496 20.5232 29.85 20.2749 29.9478C20.0982 30.0174 19.9018 30.0174 19.7251 29.9478C13.9576 27.6757 11 24.0012 11 19V13.75ZM24 23V22C24 20.6193 25.1193 19.5 26.5 19.5C27.8807 19.5 29 20.6193 29 22V23H29.5C30.3284 23 31 23.6716 31 24.5V29.5C31 30.3284 30.3284 31 29.5 31H23.5C22.6716 31 22 30.3284 22 29.5V24.5C22 23.6716 22.6716 23 23.5 23H24ZM25.5 22V23H27.5V22C27.5 21.4477 27.0523 21 26.5 21C25.9477 21 25.5 21.4477 25.5 22ZM27.5 27C27.5 26.4477 27.0523 26 26.5 26C25.9477 26 25.5 26.4477 25.5 27C25.5 27.5523 25.9477 28 26.5 28C27.0523 28 27.5 27.5523 27.5 27Z" fill="#59BF75"/>
</svg>
